<?xml version="1.0" encoding="UTF-8" standalone="no"?>
<svg width="72px" height="72px" viewBox="0 0 96 96" version="1.1" xmlns="http://www.w3.org/2000/svg" xmlns:xlink="http://www.w3.org/1999/xlink" xmlns:sketch="http://www.bohemiancoding.com/sketch/ns">
  <!-- Generator: Sketch 3.2.2 (9983) - http://www.bohemiancoding.com/sketch -->
  <defs>
    <pattern id="pattern-stripe-blank"
      class='svg-pattern'
      width="6" height="6"
      patternUnits="userSpaceOnUse"
      patternTransform="rotate(-45)">
      <rect width="1em" height="6" fill="white" fill-opacity='1'></rect>
    </pattern>
    <mask id="mask-stripe-blank">
      <rect x="0" y="0" width="100%" height="100%" fill="url(#pattern-stripe-blank)" fill-opacity='1'/>
    </mask>
  </defs>
  <title>Blank export</title>
  <desc>Created with Sketch.</desc>
  <defs></defs>
  <g id="Welcome" stroke="none" stroke-width="1" fill="none" fill-rule="evenodd" sketch:type="MSPage">
    <g id="Desktop-HD" sketch:type="MSArtboardGroup" transform="translate(-222.000000, -30.000000)" fill="#FFFFFF">
      <g id="Left" sketch:type="MSLayerGroup" transform="translate(120.000000, 30.000000)">
        <g id="Blank-export" transform="translate(102.000000, 0.000000)" sketch:type="MSShapeGroup">
          <path d="M0,0 L96,0 L96,96 L0,96 L0,0 Z M6,6 L90,6 L90,90 L6,90 L6,6 Z M38,12 L58,12 L58,32 L38,32 L38,12 Z M64,38 L84,38 L84,58 L64,58 L64,38 Z M12,64 L32,64 L32,84 L12,84 L12,64 Z M38,64 L58,64 L58,84 L38,84 L38,64 Z M64,64 L84,64 L84,84 L64,84 L64,64 Z" id="Rectangle-23"></path>
        </g>
      </g>
    </g>
  </g>
</svg>
