<?xml version="1.0" encoding="UTF-8" standalone="no"?>
<svg width="720px" height="467px" viewBox="0 0 720 467" version="1.1" xmlns="http://www.w3.org/2000/svg" xmlns:xlink="http://www.w3.org/1999/xlink" xmlns:sketch="http://www.bohemiancoding.com/sketch/ns">
    <!-- Generator: Sketch 3.2.2 (9983) - http://www.bohemiancoding.com/sketch -->
    <title>Rectangle 14</title>
    <desc>Created with Sketch.</desc>
    <defs></defs>
    <g id="Welcome" stroke="none" stroke-width="1" fill="none" fill-rule="evenodd" sketch:type="MSPage">
        <g id="Desktop-HD" sketch:type="MSArtboardGroup" transform="translate(-600.000000, -172.000000)" fill=currentColor>
            <g id="Article-1" sketch:type="MSLayerGroup" transform="translate(440.000000, 32.000000)">
                <g id="Frame" transform="translate(20.000000, 135.000000)" sketch:type="MSShapeGroup">
                    <g id="Rectangle-14-+-Rectangle-13" transform="translate(140.000000, 5.000000)">
                        <path d="M0,433 L720,433 L720,456.487116 C720,462.011444 715.519295,466.489796 709.993521,466.489796 L10.0064794,466.489796 C4.48005345,466.489796 0,462.007963 0,456.487116 L0,433 Z M0,10.0026799 C0,4.47835234 4.48070525,0 10.0064794,0 L709.993521,0 C715.519947,0 720,4.48183277 720,10.0026799 L720,33.4897959 L0,33.4897959 L0,10.0026799 Z M22.2680412,26.047619 C26.3674744,26.047619 29.6907216,22.715643 29.6907216,18.6054422 C29.6907216,14.4952414 26.3674744,11.1632653 22.2680412,11.1632653 C18.168608,11.1632653 14.8453608,14.4952414 14.8453608,18.6054422 C14.8453608,22.715643 18.168608,26.047619 22.2680412,26.047619 Z M44.5360825,26.047619 C48.6355157,26.047619 51.9587629,22.715643 51.9587629,18.6054422 C51.9587629,14.4952414 48.6355157,11.1632653 44.5360825,11.1632653 C40.4366493,11.1632653 37.1134021,14.4952414 37.1134021,18.6054422 C37.1134021,22.715643 40.4366493,26.047619 44.5360825,26.047619 Z M66.8041237,26.047619 C70.9035569,26.047619 74.2268041,22.715643 74.2268041,18.6054422 C74.2268041,14.4952414 70.9035569,11.1632653 66.8041237,11.1632653 C62.7046905,11.1632653 59.3814433,14.4952414 59.3814433,18.6054422 C59.3814433,22.715643 62.7046905,26.047619 66.8041237,26.047619 Z" id="Rectangle-14"></path>
                    </g>
                </g>
            </g>
        </g>
    </g>
</svg>
