<?xml version="1.0" encoding="UTF-8" standalone="no"?>
<svg width="72px" height="72px" viewBox="0 0 96 96" version="1.1" xmlns="http://www.w3.org/2000/svg" xmlns:xlink="http://www.w3.org/1999/xlink" xmlns:sketch="http://www.bohemiancoding.com/sketch/ns">
  <!-- Generator: Sketch 3.2.2 (9983) - http://www.bohemiancoding.com/sketch -->
  <defs>
    <pattern id="pattern-stripe-logo"
      class='svg-pattern'
      width="6" height="6"
      patternUnits="userSpaceOnUse"
      patternTransform="rotate(45)">
      <rect width="1em" height="6" fill="white" fill-opacity='1'></rect>
    </pattern>
    <mask id="mask-stripe-logo">
      <rect x="0" y="0" width="100%" height="100%" fill="url(#pattern-stripe-logo)" fill-opacity='1'/>
    </mask>
  </defs>
  <title>Logo</title>
  <desc>Created with Sketch.</desc>
  <defs></defs>
  <g id="Welcome" stroke="none" stroke-width="1" fill="none" fill-rule="evenodd" sketch:type="MSPage">
    <g id="Desktop-HD" sketch:type="MSArtboardGroup" transform="translate(-120.000000, -30.000000)" fill="#FFFFFF">
      <g id="Left" sketch:type="MSLayerGroup" transform="translate(120.000000, 30.000000)">
        <g id="Logo" sketch:type="MSShapeGroup">
          <path d="M0,0 L96,0 L96,96 L0,96 L0,0 Z M43.2415,85.424 L43.2415,62.9548333 C43.2415,61.9714951 42.7006721,61.4798333 41.619,61.4798333 L35.9156667,61.4798333 L35.9156667,45.9431667 L59.7615,45.9431667 L59.7615,61.4798333 L54.0581667,61.4798333 C53.4353858,61.4798333 53.0092789,61.6027488 52.7798333,61.8485833 C52.5503877,62.0944179 52.4356667,62.4631642 52.4356667,62.9548333 L52.4356667,85.424 L43.2415,85.424 Z M62.1215,85.424 L62.1215,80.2123333 L74.8065,80.2123333 C75.8226162,80.2123333 76.3306667,79.7042829 76.3306667,78.6881667 L76.3306667,75.4431667 L66.2515,75.4431667 C64.6781588,75.4431667 63.596503,75.156364 63.0065,74.58275 C62.4164971,74.009136 62.1215,72.9520633 62.1215,71.4115 L62.1215,45.9431667 L71.4631667,45.9431667 L71.4631667,68.7565 C71.4631667,69.7726162 71.9712171,70.2806667 72.9873333,70.2806667 L76.3306667,70.2806667 L76.3306667,45.9431667 L85.6723333,45.9431667 L85.6723333,81.3923333 C85.6723333,82.9328966 85.3773363,83.9899694 84.7873333,84.5635833 C84.1973304,85.1371973 83.1156745,85.424 81.5423333,85.424 L62.1215,85.424 Z" id="Rectangle-23"></path>
        </g>
      </g>
    </g>
  </g>
</svg>
